<mxfile host="app.diagrams.net" modified="2023-11-29T11:42:07.150Z" agent="Mozilla/5.0 (Windows NT 10.0; Win64; x64) AppleWebKit/537.36 (KHTML, like Gecko) Chrome/119.0.0.0 Safari/537.36 OPR/105.0.0.0 (Edition Yx 08)" etag="RGltPh5bgCiDVy4zS07_" version="22.1.4" type="device">
  <diagram id="C5RBs43oDa-KdzZeNtuy" name="Page-1">
    <mxGraphModel dx="1380" dy="749" grid="1" gridSize="10" guides="1" tooltips="1" connect="1" arrows="1" fold="1" page="1" pageScale="1" pageWidth="827" pageHeight="1169" math="0" shadow="0">
      <root>
        <mxCell id="WIyWlLk6GJQsqaUBKTNV-0" />
        <mxCell id="WIyWlLk6GJQsqaUBKTNV-1" parent="WIyWlLk6GJQsqaUBKTNV-0" />
        <mxCell id="Nb2f_3NvkUgumeeBy4mp-3" value="" style="edgeStyle=orthogonalEdgeStyle;rounded=0;orthogonalLoop=1;jettySize=auto;html=1;" edge="1" parent="WIyWlLk6GJQsqaUBKTNV-1" source="Nb2f_3NvkUgumeeBy4mp-1" target="Nb2f_3NvkUgumeeBy4mp-2">
          <mxGeometry relative="1" as="geometry" />
        </mxCell>
        <mxCell id="Nb2f_3NvkUgumeeBy4mp-1" value="Start" style="rounded=1;whiteSpace=wrap;html=1;" vertex="1" parent="WIyWlLk6GJQsqaUBKTNV-1">
          <mxGeometry x="375" y="170" width="80" height="30" as="geometry" />
        </mxCell>
        <mxCell id="Nb2f_3NvkUgumeeBy4mp-5" value="" style="edgeStyle=orthogonalEdgeStyle;rounded=0;orthogonalLoop=1;jettySize=auto;html=1;" edge="1" parent="WIyWlLk6GJQsqaUBKTNV-1" source="Nb2f_3NvkUgumeeBy4mp-2" target="Nb2f_3NvkUgumeeBy4mp-4">
          <mxGeometry relative="1" as="geometry" />
        </mxCell>
        <mxCell id="Nb2f_3NvkUgumeeBy4mp-2" value="string [] array1&lt;br&gt;string [] array2&lt;br&gt;it count = 0" style="shape=parallelogram;perimeter=parallelogramPerimeter;whiteSpace=wrap;html=1;fixedSize=1;rounded=1;" vertex="1" parent="WIyWlLk6GJQsqaUBKTNV-1">
          <mxGeometry x="355" y="230" width="120" height="60" as="geometry" />
        </mxCell>
        <mxCell id="Nb2f_3NvkUgumeeBy4mp-7" value="" style="edgeStyle=orthogonalEdgeStyle;rounded=0;orthogonalLoop=1;jettySize=auto;html=1;" edge="1" parent="WIyWlLk6GJQsqaUBKTNV-1" source="Nb2f_3NvkUgumeeBy4mp-4" target="Nb2f_3NvkUgumeeBy4mp-6">
          <mxGeometry relative="1" as="geometry" />
        </mxCell>
        <mxCell id="Nb2f_3NvkUgumeeBy4mp-18" value="" style="edgeStyle=orthogonalEdgeStyle;rounded=0;orthogonalLoop=1;jettySize=auto;html=1;" edge="1" parent="WIyWlLk6GJQsqaUBKTNV-1" source="Nb2f_3NvkUgumeeBy4mp-4" target="Nb2f_3NvkUgumeeBy4mp-17">
          <mxGeometry relative="1" as="geometry">
            <Array as="points">
              <mxPoint x="570" y="390" />
              <mxPoint x="570" y="730" />
              <mxPoint x="435" y="730" />
            </Array>
          </mxGeometry>
        </mxCell>
        <mxCell id="Nb2f_3NvkUgumeeBy4mp-4" value="for (int i = 0; i &amp;lt; array1.Length; i++)" style="shape=hexagon;perimeter=hexagonPerimeter2;whiteSpace=wrap;html=1;fixedSize=1;" vertex="1" parent="WIyWlLk6GJQsqaUBKTNV-1">
          <mxGeometry x="312.5" y="330" width="205" height="120" as="geometry" />
        </mxCell>
        <mxCell id="Nb2f_3NvkUgumeeBy4mp-14" style="edgeStyle=orthogonalEdgeStyle;rounded=0;orthogonalLoop=1;jettySize=auto;html=1;" edge="1" parent="WIyWlLk6GJQsqaUBKTNV-1" source="Nb2f_3NvkUgumeeBy4mp-6">
          <mxGeometry relative="1" as="geometry">
            <mxPoint x="270" y="390" as="targetPoint" />
          </mxGeometry>
        </mxCell>
        <mxCell id="Nb2f_3NvkUgumeeBy4mp-6" value="if(array1[i].Length &amp;lt;= 3)" style="rhombus;whiteSpace=wrap;html=1;" vertex="1" parent="WIyWlLk6GJQsqaUBKTNV-1">
          <mxGeometry x="332.5" y="480" width="165" height="140" as="geometry" />
        </mxCell>
        <mxCell id="Nb2f_3NvkUgumeeBy4mp-13" value="Yes" style="text;html=1;strokeColor=none;fillColor=none;align=center;verticalAlign=middle;whiteSpace=wrap;rounded=0;" vertex="1" parent="WIyWlLk6GJQsqaUBKTNV-1">
          <mxGeometry x="480" y="520" width="60" height="30" as="geometry" />
        </mxCell>
        <mxCell id="Nb2f_3NvkUgumeeBy4mp-16" value="No" style="text;html=1;strokeColor=none;fillColor=none;align=center;verticalAlign=middle;whiteSpace=wrap;rounded=0;" vertex="1" parent="WIyWlLk6GJQsqaUBKTNV-1">
          <mxGeometry x="272.5" y="510" width="60" height="30" as="geometry" />
        </mxCell>
        <mxCell id="Nb2f_3NvkUgumeeBy4mp-20" value="" style="edgeStyle=orthogonalEdgeStyle;rounded=0;orthogonalLoop=1;jettySize=auto;html=1;" edge="1" parent="WIyWlLk6GJQsqaUBKTNV-1" source="Nb2f_3NvkUgumeeBy4mp-17" target="Nb2f_3NvkUgumeeBy4mp-19">
          <mxGeometry relative="1" as="geometry" />
        </mxCell>
        <mxCell id="Nb2f_3NvkUgumeeBy4mp-17" value="PrintArray(array2);" style="shape=document;whiteSpace=wrap;html=1;boundedLbl=1;" vertex="1" parent="WIyWlLk6GJQsqaUBKTNV-1">
          <mxGeometry x="375" y="760" width="120" height="80" as="geometry" />
        </mxCell>
        <mxCell id="Nb2f_3NvkUgumeeBy4mp-19" value="Finish" style="rounded=1;whiteSpace=wrap;html=1;" vertex="1" parent="WIyWlLk6GJQsqaUBKTNV-1">
          <mxGeometry x="375" y="880" width="120" height="60" as="geometry" />
        </mxCell>
        <mxCell id="Nb2f_3NvkUgumeeBy4mp-21" value="" style="edgeStyle=orthogonalEdgeStyle;rounded=0;orthogonalLoop=1;jettySize=auto;html=1;" edge="1" parent="WIyWlLk6GJQsqaUBKTNV-1" source="Nb2f_3NvkUgumeeBy4mp-6" target="Nb2f_3NvkUgumeeBy4mp-11">
          <mxGeometry relative="1" as="geometry">
            <mxPoint x="498" y="550" as="sourcePoint" />
            <mxPoint x="150" y="420" as="targetPoint" />
            <Array as="points">
              <mxPoint x="540" y="550" />
              <mxPoint x="540" y="680" />
            </Array>
          </mxGeometry>
        </mxCell>
        <mxCell id="Nb2f_3NvkUgumeeBy4mp-22" style="edgeStyle=orthogonalEdgeStyle;rounded=0;orthogonalLoop=1;jettySize=auto;html=1;entryX=0;entryY=0.5;entryDx=0;entryDy=0;" edge="1" parent="WIyWlLk6GJQsqaUBKTNV-1" source="Nb2f_3NvkUgumeeBy4mp-11" target="Nb2f_3NvkUgumeeBy4mp-4">
          <mxGeometry relative="1" as="geometry">
            <Array as="points">
              <mxPoint x="130" y="680" />
              <mxPoint x="130" y="390" />
            </Array>
          </mxGeometry>
        </mxCell>
        <mxCell id="Nb2f_3NvkUgumeeBy4mp-11" value="&lt;div&gt;array2[count] = array1[i];&lt;/div&gt;&lt;div&gt;&amp;nbsp; &amp;nbsp; &amp;nbsp; &amp;nbsp; count++;&lt;/div&gt;" style="rounded=0;whiteSpace=wrap;html=1;" vertex="1" parent="WIyWlLk6GJQsqaUBKTNV-1">
          <mxGeometry x="319" y="650" width="190" height="60" as="geometry" />
        </mxCell>
      </root>
    </mxGraphModel>
  </diagram>
</mxfile>
